<?xml version="1.0" standalone="no"?>
<!DOCTYPE svg PUBLIC "-//W3C//DTD SVG 20010904//EN"
 "http://www.w3.org/TR/2001/REC-SVG-20010904/DTD/svg10.dtd">
<svg version="1.0" xmlns="http://www.w3.org/2000/svg"
 width="1920.000000pt" height="1080.000000pt" viewBox="0 0 1920.000000 1080.000000"
 preserveAspectRatio="xMidYMid meet">
<metadata>
Created by potrace 1.13, written by Peter Selinger 2001-2015
</metadata>
<g transform="translate(0.000000,1080.000000) scale(0.100000,-0.100000)"
fill="#000000" stroke="none">
<path d="M0 10666 c0 -110 3 -135 15 -140 8 -3 15 -13 15 -21 0 -9 14 -28 30
-42 16 -13 30 -31 30 -39 0 -9 20 -34 45 -56 25 -23 45 -48 46 -57 0 -9 20
-32 44 -51 24 -19 44 -43 44 -52 1 -17 34 -58 47 -58 3 0 29 -22 57 -49 29
-27 61 -58 73 -68 89 -77 191 -169 329 -297 27 -25 58 -46 68 -46 15 0 52 -28
113 -87 7 -7 20 -13 29 -13 9 0 30 -13 47 -30 16 -16 33 -30 38 -30 4 0 10 -7
14 -15 3 -8 12 -12 20 -9 8 3 28 -8 45 -25 18 -17 40 -31 49 -31 10 0 37 -18
61 -40 23 -22 50 -40 59 -40 10 0 29 -11 44 -25 15 -14 36 -25 48 -25 11 0 23
-7 26 -15 4 -8 16 -15 28 -15 12 0 35 -13 50 -29 16 -16 34 -27 41 -25 7 3 19
-2 28 -10 9 -9 25 -16 37 -16 11 0 23 -7 26 -15 4 -8 16 -15 29 -15 12 0 28
-7 35 -15 7 -8 23 -15 36 -15 13 0 24 -4 24 -10 0 -5 11 -10 24 -10 13 0 29
-7 36 -15 7 -8 21 -15 32 -15 10 0 21 -7 24 -15 4 -9 19 -15 35 -15 16 0 29
-4 29 -10 0 -5 11 -10 25 -10 14 0 28 -7 31 -15 4 -8 17 -15 30 -15 14 0 27
-7 30 -15 4 -8 18 -15 34 -15 16 0 30 -7 34 -16 5 -12 14 -15 36 -11 19 4 34
1 44 -8 8 -8 24 -15 36 -15 11 0 23 -7 26 -15 4 -8 16 -15 29 -15 12 0 28 -7
35 -15 7 -9 29 -15 51 -15 22 0 39 -4 39 -10 0 -5 17 -10 39 -10 22 0 44 -6
51 -15 7 -8 21 -15 32 -15 10 0 21 -7 24 -15 4 -10 20 -15 50 -15 24 0 44 -4
44 -10 0 -5 18 -10 40 -10 27 0 43 -5 46 -15 4 -10 20 -15 45 -15 26 0 42 -5
45 -15 4 -10 20 -15 49 -15 30 0 45 -5 49 -16 5 -12 14 -15 36 -11 19 4 34 1
44 -8 8 -8 30 -15 49 -15 19 0 40 -7 47 -15 7 -8 27 -15 45 -15 18 0 38 -7 45
-15 8 -10 31 -15 66 -15 30 0 54 -4 54 -10 0 -5 24 -10 54 -10 35 0 58 -5 66
-15 8 -9 30 -15 60 -15 30 0 52 -6 60 -15 8 -10 31 -15 66 -15 30 0 54 -4 54
-10 0 -5 22 -10 48 -10 27 0 57 -6 68 -15 10 -8 41 -15 67 -15 33 0 49 -5 53
-15 5 -11 22 -15 64 -15 42 0 59 -4 64 -15 4 -11 22 -15 76 -15 40 0 70 -4 70
-10 0 -5 25 -10 55 -10 40 0 57 -4 61 -15 5 -11 23 -15 74 -15 48 0 71 -4 80
-15 9 -11 32 -15 81 -15 39 0 69 -4 69 -10 0 -5 25 -10 55 -10 40 0 57 -4 61
-15 5 -12 25 -15 89 -15 61 0 86 -4 95 -15 9 -11 32 -15 81 -15 39 0 69 -4 69
-10 0 -6 33 -10 78 -10 53 0 84 -5 98 -15 13 -10 44 -14 95 -15 56 0 80 -4 89
-15 9 -11 35 -15 104 -15 64 -1 97 -5 110 -15 14 -11 47 -15 113 -15 55 0 93
-4 93 -10 0 -6 40 -10 99 -10 75 0 101 -4 111 -15 9 -11 35 -15 105 -15 70 0
96 -4 105 -15 9 -11 34 -15 96 -15 49 0 84 -4 84 -10 0 -6 45 -10 114 -10 89
0 116 -3 126 -15 9 -11 33 -15 90 -15 57 0 81 -4 90 -15 9 -11 32 -15 81 -15
39 0 69 -4 69 -10 0 -5 22 -10 48 -10 27 0 57 -6 68 -15 12 -9 42 -14 80 -15
42 0 65 -5 74 -15 7 -8 27 -15 45 -15 18 0 38 -7 45 -15 8 -10 31 -15 66 -15
30 0 54 -4 54 -10 0 -5 7 -10 15 -10 22 0 19 8 -16 39 -19 18 -27 31 -20 35 6
4 14 0 17 -8 8 -20 48 -21 64 -1 8 9 30 15 59 15 26 0 53 6 59 12 10 10 17 10
32 0 23 -14 90 -16 90 -3 0 5 -7 11 -15 15 -40 15 -7 26 88 28 97 3 102 4 105
26 2 13 -3 25 -12 28 -9 3 -16 10 -16 15 0 19 27 6 65 -31 43 -43 91 -53 115
-25 12 14 15 14 30 0 15 -14 18 -14 30 0 8 9 30 15 59 15 26 0 53 6 59 12 10
10 17 10 32 0 27 -17 75 -15 90 3 18 22 168 22 176 0 4 -8 12 -15 19 -15 7 0
15 7 19 15 3 9 18 15 39 15 19 0 40 -7 47 -15 10 -12 37 -15 120 -15 84 0 110
-3 120 -15 12 -14 15 -14 30 0 21 19 44 19 60 -1 19 -22 84 -15 88 9 5 23 -30
57 -58 57 -23 0 -35 22 -26 46 6 16 8 16 24 0 10 -9 26 -16 34 -16 9 0 21 -7
28 -15 7 -9 29 -15 51 -15 31 0 38 -4 41 -22 2 -18 11 -24 37 -26 18 -2 38 1
44 7 17 17 37 13 37 -7 0 -11 9 -27 21 -38 16 -15 24 -16 39 -6 11 7 26 12 34
12 7 0 19 7 26 15 12 14 16 13 40 -10 33 -31 41 -31 70 0 21 23 25 24 40 10
22 -20 201 -18 208 3 2 6 -3 12 -12 12 -18 0 -22 15 -7 25 6 3 14 -2 19 -12 9
-15 12 -15 26 -4 13 11 22 11 39 3 12 -5 30 -13 40 -16 9 -3 17 -15 17 -26 0
-11 7 -20 15 -20 8 0 15 9 15 19 0 27 15 34 30 16 11 -14 15 -14 29 -1 15 14
20 13 44 -9 27 -26 47 -32 47 -15 0 6 -7 10 -16 10 -21 0 -12 24 10 28 10 2
25 -3 34 -11 15 -14 21 -12 55 19 l37 34 -36 33 c-20 17 -42 35 -48 39 -7 5
-5 12 7 21 17 12 17 14 3 26 -20 17 -21 31 -1 31 8 0 15 7 15 15 0 9 -6 12
-15 9 -8 -4 -15 -10 -15 -15 0 -5 -7 -9 -15 -9 -9 0 -15 9 -15 25 0 20 5 25
25 25 14 0 33 -8 43 -17 87 -84 122 -112 142 -115 16 -2 26 -11 30 -28 4 -18
13 -26 33 -28 15 -2 27 -7 27 -12 0 -5 12 -10 27 -12 20 -2 29 -10 33 -28 7
-29 41 -38 60 -15 7 8 23 15 36 15 32 0 30 12 -6 40 -17 13 -30 31 -30 42 0
10 -7 21 -15 24 -8 4 -15 16 -15 29 0 13 -7 26 -16 29 -8 3 -12 11 -8 17 5 9
11 7 19 -4 7 -10 15 -17 19 -17 11 0 46 -40 46 -53 0 -22 102 -109 114 -97 18
18 36 11 36 -15 0 -16 -6 -25 -15 -25 -8 0 -15 -4 -15 -10 0 -5 7 -10 15 -10
8 0 15 5 15 10 0 14 27 12 33 -2 3 -10 9 -10 26 0 33 19 61 15 61 -9 0 -23 36
-58 60 -59 8 0 30 14 49 30 39 34 44 36 65 15 8 -8 23 -15 34 -15 11 0 25 -7
32 -15 12 -14 15 -14 30 0 15 14 18 14 30 0 8 -10 30 -15 60 -15 30 0 52 -6
60 -15 7 -9 29 -15 51 -15 22 0 39 -4 39 -10 0 -5 7 -10 15 -10 22 0 19 8 -15
37 -16 13 -30 31 -30 39 0 7 -20 32 -45 55 -25 23 -45 49 -46 58 0 9 -20 32
-44 51 -24 19 -44 43 -44 53 -1 15 -34 57 -46 57 -15 0 -45 38 -45 57 0 13 -4
23 -9 23 -16 0 -81 66 -81 82 0 8 -13 25 -30 38 -30 23 -39 40 -21 40 15 0 81
-66 81 -80 0 -13 99 -110 113 -110 4 0 7 -9 7 -20 0 -17 32 -60 44 -60 12 0
76 -69 76 -82 0 -7 17 -28 38 -45 20 -17 71 -63 112 -102 46 -43 84 -71 98
-71 12 0 22 -4 22 -10 0 -5 14 -10 30 -10 17 0 30 5 30 10 0 6 14 10 30 10 17
0 30 -4 30 -10 0 -5 7 -10 15 -10 8 0 15 5 15 10 0 25 33 2 116 -77 7 -7 17
-13 23 -13 17 0 13 47 -4 54 -20 7 -20 46 0 46 9 0 15 -9 15 -25 0 -28 12 -32
30 -10 11 13 15 14 29 1 9 -8 25 -16 36 -18 12 -2 21 -13 23 -26 3 -21 32 -32
32 -12 0 6 11 10 24 10 13 0 29 7 36 15 16 19 44 19 60 0 19 -23 41 -18 77 17
34 33 32 34 48 -17 3 -11 19 -15 60 -15 30 0 55 -4 55 -10 0 -5 7 -10 15 -10
8 0 15 5 15 10 0 6 11 10 24 10 31 0 40 14 21 30 -14 12 -14 15 2 29 25 24 47
31 64 20 12 -7 11 -10 -4 -21 -17 -13 -17 -15 7 -37 30 -28 58 -24 66 9 8 35
52 35 60 0 5 -23 11 -25 63 -28 31 -2 57 -7 57 -12 0 -6 17 -10 39 -10 22 0
44 -6 51 -15 7 -8 27 -15 45 -15 18 0 38 -7 45 -15 12 -14 15 -14 30 0 21 19
44 19 60 0 16 -19 44 -19 60 0 16 19 111 17 118 -2 2 -7 -3 -13 -12 -13 -9 0
-16 -4 -16 -10 0 -5 7 -10 15 -10 8 0 15 5 15 10 0 14 28 12 32 -2 6 -18 125
-20 143 -2 21 21 35 17 35 -11 0 -16 6 -25 15 -25 9 0 15 9 15 25 0 35 14 31
62 -15 46 -44 44 -44 104 18 25 26 31 27 50 7 9 -9 25 -12 43 -9 33 7 53 -14
27 -28 -9 -5 -14 -13 -11 -19 9 -14 41 -11 55 6 8 9 30 15 56 15 25 0 53 5 64
12 16 11 23 8 48 -15 15 -15 35 -27 44 -27 9 0 20 -4 23 -10 11 -17 35 -11 35
9 0 27 15 34 30 16 16 -20 74 -19 90 0 12 14 15 14 30 0 9 -8 33 -15 53 -15
37 0 50 -16 22 -26 -25 -10 -17 -24 15 -24 17 0 30 5 30 10 0 6 27 10 60 10
33 0 60 -4 60 -10 0 -5 7 -10 15 -10 8 0 15 5 15 10 0 6 19 10 41 10 32 0 47
-6 65 -25 23 -25 44 -33 44 -15 0 5 -8 14 -17 19 -15 9 -15 12 -4 20 15 10 51
3 51 -10 0 -5 10 -9 23 -9 13 0 36 -13 52 -30 26 -27 30 -28 45 -15 15 14 18
14 30 0 16 -19 74 -20 90 0 15 18 30 11 30 -15 0 -13 8 -20 27 -22 19 -2 29
-10 33 -28 6 -24 8 -25 108 -28 101 -3 102 -3 102 -27 0 -19 5 -25 23 -25 13
0 36 -13 52 -30 16 -16 39 -30 52 -30 13 0 23 -4 23 -10 0 -5 24 -10 53 -10
46 0 57 -4 82 -30 16 -16 37 -30 47 -30 11 0 31 -11 46 -25 15 -14 34 -25 43
-25 9 0 22 -7 29 -15 7 -8 28 -15 48 -15 24 0 42 -7 58 -25 27 -29 31 -30 50
-10 19 19 29 19 48 0 8 -8 23 -15 34 -15 11 0 25 -7 32 -15 12 -14 15 -14 31
1 15 14 19 14 23 3 2 -8 7 -22 10 -31 3 -11 15 -18 31 -18 14 0 25 -4 25 -10
0 -5 7 -10 15 -10 8 0 15 5 15 10 0 18 50 10 76 -12 14 -13 42 -25 62 -28 26
-4 38 -11 40 -24 6 -29 43 -55 78 -56 17 0 37 -7 44 -15 7 -8 23 -15 36 -15
19 0 24 -5 24 -25 0 -28 14 -32 36 -10 17 17 70 20 79 5 9 -15 -33 -50 -61
-50 -16 0 -24 -5 -22 -12 9 -26 41 -20 70 12 l29 33 37 -34 c20 -19 38 -37 40
-41 2 -5 14 -8 27 -8 12 0 28 -7 35 -15 7 -8 20 -15 30 -15 10 0 23 -7 30 -15
7 -8 23 -15 36 -15 16 0 24 -7 26 -22 3 -21 9 -23 70 -26 43 -2 71 -8 78 -17
8 -10 31 -15 62 -15 39 0 53 -5 72 -25 27 -29 32 -30 52 -10 20 19 58 19 78 0
17 -17 63 -20 68 -4 3 9 21 15 51 18 4 1 7 10 7 20 0 11 3 22 8 24 13 9 52
-30 52 -52 0 -18 6 -21 39 -21 22 0 44 -6 51 -15 12 -14 15 -14 30 0 15 13 19
13 38 -8 12 -13 22 -31 22 -40 0 -11 8 -17 23 -17 12 -1 47 -24 82 -55 33 -30
66 -55 75 -55 8 0 34 -18 58 -40 24 -22 47 -40 52 -40 16 0 12 17 -5 24 -16 6
-21 26 -6 26 18 0 81 -64 81 -82 0 -21 12 -23 39 -6 24 15 51 4 51 -22 0 -14
7 -20 24 -20 13 0 29 -7 36 -15 7 -8 27 -15 45 -15 18 0 38 -7 45 -15 12 -14
16 -13 37 6 27 26 29 39 8 39 -8 0 -15 5 -15 10 0 6 7 10 15 10 8 0 15 -4 15
-10 0 -5 10 -10 23 -10 12 0 39 -17 62 -40 32 -31 48 -39 77 -40 23 0 40 -6
46 -16 8 -14 12 -14 30 -3 17 11 24 11 34 1 7 -7 38 -12 74 -12 42 0 65 -5 74
-15 7 -8 25 -15 41 -15 16 0 39 -6 50 -12 17 -10 23 -10 26 0 7 19 23 14 49
-13 28 -31 30 -31 58 0 24 25 60 33 71 15 11 -18 34 -10 37 13 2 16 10 22 27
22 13 0 26 -6 29 -12 2 -7 -3 -13 -12 -13 -9 0 -16 -4 -16 -10 0 -5 7 -10 15
-10 8 0 15 5 15 10 0 6 14 10 30 10 25 0 30 -4 30 -24 0 -13 7 -26 15 -30 8
-3 15 -15 15 -26 0 -21 24 -28 35 -10 4 6 16 4 31 -6 l24 -16 0 2406 0 2406
-9600 0 -9600 0 0 -134z"/>
<path d="M0 5240 l0 -5240 3809 0 c3376 0 3810 2 3815 15 7 19 45 19 52 0 4
-9 19 -15 35 -15 24 0 29 4 29 24 0 22 -5 25 -42 28 -51 4 -57 17 -18 43 31
21 39 35 19 35 -7 0 -22 -12 -36 -26 -27 -30 -66 -29 -72 1 -2 11 -9 24 -17
30 -7 5 -14 25 -16 44 -3 34 -28 58 -28 27 0 -9 -7 -16 -15 -16 -20 0 -19 17
1 28 9 5 14 18 12 28 -2 15 -14 20 -53 24 -56 6 -95 27 -95 51 0 9 -7 22 -15
29 -11 9 -15 33 -15 86 l0 74 -30 0 c-32 0 -40 -14 -14 -24 16 -6 16 -8 0 -24
-9 -10 -16 -26 -16 -35 0 -20 -38 -33 -54 -17 -8 8 -7 14 7 21 9 6 15 14 12
20 -10 15 -47 10 -60 -8 -8 -11 -14 -13 -19 -4 -4 6 0 14 8 17 9 3 16 17 16
29 0 18 6 24 28 27 31 3 45 44 18 54 -9 3 -16 14 -16 24 0 10 -7 23 -15 30
-19 16 -19 46 0 54 29 11 15 26 -24 26 -21 0 -44 6 -51 14 -6 8 -21 16 -33 18
-12 2 -23 12 -26 23 -2 11 -9 24 -17 28 -8 4 -14 24 -14 42 0 30 -3 35 -25 35
-13 0 -28 8 -34 18 -8 14 -12 15 -22 4 -7 -6 -19 -12 -26 -12 -19 0 -16 37 3
48 27 15 6 33 -31 26 -37 -7 -59 12 -31 28 16 9 16 12 -5 34 -16 17 -33 24
-61 24 -21 0 -38 5 -38 10 0 6 -7 10 -15 10 -8 0 -15 -4 -15 -10 0 -5 -7 -10
-15 -10 -8 0 -15 5 -15 10 0 6 7 10 16 10 12 0 14 10 12 52 -3 46 -6 53 -28
58 -14 3 -27 14 -29 25 -2 11 -9 24 -17 28 -8 4 -14 16 -14 26 0 24 -41 61
-68 61 -12 0 -22 4 -22 9 0 5 -12 11 -27 13 -24 3 -29 8 -31 37 -2 19 -10 40
-17 45 -7 6 -15 20 -17 31 -4 25 -35 31 -57 11 -22 -20 -31 -12 -31 31 0 29
-3 33 -25 33 -14 0 -28 7 -31 15 -4 8 -13 15 -21 15 -17 0 -13 22 5 28 7 2 12
-3 12 -12 0 -9 7 -16 15 -16 8 0 15 4 15 8 0 12 -70 66 -94 72 -27 8 -33 38
-10 55 18 12 17 14 -6 34 -20 16 -39 20 -92 21 -64 0 -68 1 -68 23 0 12 11 30
24 39 21 15 26 16 36 3 18 -21 30 -9 30 31 0 33 -1 34 -39 34 -21 0 -44 6 -51
14 -6 8 -28 16 -48 18 -33 3 -37 6 -40 35 -2 17 -10 37 -18 43 -8 7 -14 20
-14 29 0 10 -14 27 -31 40 -28 21 -29 24 -15 40 14 15 13 19 -7 35 -12 11 -30
26 -40 34 -16 14 -19 14 -31 -3 -8 -12 -15 -14 -20 -7 -3 6 2 15 11 21 16 9
15 13 -14 38 -28 25 -33 35 -33 75 0 43 -2 47 -27 50 -24 3 -28 8 -31 41 -3
30 -7 37 -25 37 -20 1 -127 88 -127 104 0 14 22 5 44 -19 13 -14 28 -25 35
-25 16 0 14 11 -6 26 -17 12 -17 14 1 27 13 10 15 16 7 21 -6 4 -14 0 -17 -8
-3 -9 -10 -16 -15 -16 -16 0 -49 40 -49 59 0 10 -6 21 -14 24 -8 3 -16 16 -18
29 -2 17 -11 24 -30 26 -22 3 -28 9 -28 28 0 15 6 24 15 24 17 0 20 16 5 25
-6 3 -13 -1 -16 -9 -8 -22 -14 -20 -56 17 -35 31 -38 37 -38 89 0 37 -5 60
-15 68 -8 7 -15 25 -15 40 0 15 -7 33 -15 40 -8 7 -15 19 -15 27 0 8 -13 26
-30 40 -16 13 -30 33 -30 43 0 10 -7 20 -15 24 -11 4 -15 21 -15 65 0 54 -3
62 -30 84 -16 14 -30 32 -30 40 0 8 -7 20 -15 27 -9 7 -15 35 -17 73 -3 59 -4
62 -30 65 -32 4 -35 10 -12 27 14 10 13 14 -15 38 -26 22 -31 33 -31 72 0 31
-5 47 -15 51 -21 8 -21 100 0 108 19 7 19 45 0 52 -8 4 -15 14 -15 24 0 10 -7
23 -15 30 -20 17 -20 76 1 84 8 3 12 11 8 17 -5 9 -11 7 -20 -5 -18 -25 -34
-11 -34 29 0 20 -6 35 -15 39 -21 8 -21 76 0 76 8 0 15 -4 15 -10 0 -5 7 -10
15 -10 19 0 19 16 0 24 -19 7 -19 45 0 52 20 8 20 54 0 54 -8 0 -15 -4 -15
-10 0 -5 -7 -10 -15 -10 -22 0 -21 112 1 131 14 12 14 14 -3 27 -17 12 -17 14
0 23 38 22 11 29 -128 31 -88 2 -145 7 -145 13 0 6 28 11 62 13 34 2 69 8 77
15 8 7 43 12 79 12 41 0 67 4 69 12 2 7 -8 13 -24 15 -24 3 -28 8 -31 37 -2
23 2 37 12 43 14 8 16 39 16 232 0 190 2 225 15 230 12 4 15 24 15 89 0 64 4
88 15 97 11 9 15 27 13 59 l-3 46 -58 3 c-40 2 -57 7 -54 15 2 8 34 13 90 15
82 3 107 12 71 26 -16 6 -16 8 0 24 20 23 21 48 1 56 -24 9 -17 26 9 26 32 0
42 16 19 29 -16 9 -15 13 14 38 35 30 43 60 18 69 -24 10 -17 24 10 24 14 0
28 7 31 15 4 8 13 15 21 15 17 0 13 22 -5 28 -7 2 -12 -3 -12 -12 0 -17 -15
-22 -24 -7 -3 4 8 19 24 31 27 21 30 28 30 81 0 52 3 60 32 84 28 24 30 28 15
37 -21 11 -22 44 -3 55 8 4 15 17 17 28 2 11 15 22 29 25 31 7 38 37 14 55
-17 12 -16 15 14 40 18 15 32 35 32 45 0 13 9 20 28 22 19 2 28 9 30 26 2 13
10 26 18 29 23 8 16 21 -13 25 -34 4 -43 28 -11 28 27 1 68 32 68 53 0 8 -7
20 -15 27 -22 18 -9 30 36 30 39 0 53 15 24 26 -23 9 -18 24 8 24 31 0 67 39
67 72 0 14 7 31 15 38 8 7 15 20 15 29 0 10 13 27 30 39 33 24 39 42 15 42
-17 0 -20 16 -5 25 6 3 13 -1 16 -9 9 -23 34 -19 34 5 0 11 13 32 30 46 16 13
30 33 30 43 0 13 9 20 27 22 19 2 29 10 31 23 2 11 11 26 20 33 16 12 16 14 0
23 -25 14 -22 29 5 29 27 0 67 38 67 63 0 9 3 17 8 17 4 1 31 23 61 50 36 34
49 51 40 55 -8 2 -54 6 -104 7 -140 4 -110 23 43 26 132 3 132 3 132 27 0 18
6 24 25 27 49 6 25 23 -36 26 -34 2 -71 10 -83 18 -12 8 -45 14 -83 14 -35 0
-63 4 -63 10 0 5 -26 10 -57 12 -77 4 -70 22 10 26 48 2 67 -1 77 -13 10 -12
39 -15 156 -15 89 0 144 -4 144 -10 0 -5 20 -10 45 -10 38 0 45 3 45 19 0 11
-13 31 -30 44 -16 14 -30 28 -30 31 0 3 20 6 45 6 25 0 45 -4 45 -10 0 -5 20
-10 45 -10 25 0 45 5 45 10 0 6 -11 10 -24 10 -31 0 -40 14 -20 31 14 12 14
14 -1 25 -9 7 -14 17 -10 23 9 16 61 13 79 -4 21 -21 53 -19 79 6 21 19 21 21
4 30 -21 12 -14 29 12 29 10 0 24 7 31 15 7 8 23 15 36 15 13 0 24 5 24 10 0
6 18 10 39 10 44 0 58 12 36 30 -22 18 -9 30 35 30 32 0 39 4 42 23 2 17 11
23 39 27 20 3 52 18 70 33 23 19 41 26 56 22 12 -3 28 1 37 10 8 8 23 15 34
15 23 0 62 40 62 63 0 9 7 17 15 17 8 0 15 -4 15 -10 0 -20 79 -11 106 13 20
17 41 23 105 27 83 5 108 23 39 28 -22 2 -40 7 -40 13 0 5 -17 9 -39 9 -22 0
-44 6 -51 15 -8 9 -30 15 -60 15 -30 0 -52 6 -60 15 -9 11 -32 15 -80 15 -38
0 -70 4 -72 10 -1 5 -30 10 -63 11 -33 1 -70 8 -82 16 -15 9 -57 13 -126 13
-81 0 -107 3 -117 15 -9 11 -33 15 -89 15 -51 1 -82 5 -95 15 -14 11 -47 15
-113 15 -55 0 -93 4 -93 10 0 6 -40 10 -99 10 -75 0 -101 4 -111 15 -9 11 -33
15 -90 15 -57 0 -81 4 -90 15 -10 11 -36 15 -111 15 -59 0 -99 4 -99 10 0 6
-30 10 -69 10 -49 0 -72 4 -81 15 -9 11 -35 15 -105 15 -70 0 -96 4 -105 15
-9 11 -32 15 -81 15 -39 0 -69 4 -69 10 0 6 -28 10 -63 10 -40 0 -70 5 -83 15
-12 9 -43 14 -82 15 -46 0 -64 4 -68 15 -5 11 -23 15 -73 15 -42 1 -73 6 -85
15 -13 10 -43 15 -83 15 -35 0 -63 4 -63 10 0 6 -25 10 -55 10 -40 0 -57 4
-61 15 -5 11 -23 15 -74 15 -48 0 -71 4 -80 15 -8 10 -31 15 -66 15 -30 0 -54
5 -54 10 0 6 -25 10 -55 10 -40 0 -57 4 -61 15 -5 11 -23 15 -74 15 -48 0 -71
4 -80 15 -8 10 -31 15 -66 15 -30 0 -54 5 -54 10 0 6 -22 10 -48 10 -27 0 -57
6 -68 15 -10 8 -40 15 -65 15 -29 0 -51 6 -59 15 -7 8 -29 15 -50 15 -26 0
-40 5 -44 16 -5 13 -16 15 -52 11 -31 -3 -49 0 -59 9 -8 8 -34 14 -63 14 -32
0 -54 5 -62 15 -7 8 -20 15 -30 15 -10 0 -23 7 -30 15 -7 9 -29 15 -51 15 -22
0 -39 5 -39 10 0 6 -18 10 -40 10 -27 0 -43 5 -46 15 -4 10 -20 15 -45 15 -26
0 -42 5 -45 15 -4 10 -20 15 -50 15 -24 0 -44 5 -44 10 0 6 -18 10 -40 10 -27
0 -43 5 -46 15 -4 10 -20 15 -44 15 -21 0 -43 7 -50 15 -7 8 -23 15 -35 15
-13 0 -26 7 -29 16 -5 12 -14 15 -36 11 -19 -4 -34 -1 -44 8 -8 8 -24 15 -36
15 -11 0 -23 7 -26 15 -4 8 -16 15 -29 15 -12 0 -28 7 -35 15 -7 9 -29 15 -51
15 -22 0 -39 5 -39 10 0 6 -11 10 -25 10 -14 0 -28 7 -31 15 -4 8 -17 15 -30
15 -14 0 -27 7 -30 15 -4 9 -19 15 -35 15 -16 0 -29 5 -29 10 0 6 -11 10 -25
10 -14 0 -28 7 -31 15 -4 10 -20 15 -44 15 -21 0 -43 7 -50 15 -7 8 -20 15
-29 15 -9 0 -25 7 -35 15 -11 8 -26 15 -34 15 -8 0 -25 11 -38 25 -13 14 -32
25 -42 25 -11 0 -25 7 -32 15 -7 8 -23 15 -36 15 -13 0 -24 5 -24 10 0 6 -11
10 -24 10 -15 0 -34 12 -49 30 -14 17 -36 30 -48 30 -12 0 -32 11 -45 25 -13
14 -32 25 -44 25 -11 0 -23 7 -26 15 -4 8 -12 15 -19 15 -7 0 -15 7 -19 15 -3
8 -15 15 -26 15 -11 0 -40 18 -62 40 -23 22 -51 40 -61 40 -11 0 -30 11 -43
25 -13 14 -31 25 -41 25 -11 0 -38 18 -62 40 -23 22 -50 40 -59 40 -10 0 -51
32 -92 70 -41 39 -83 70 -93 70 -17 0 -31 11 -159 130 -33 30 -68 61 -77 70
-10 8 -51 44 -91 80 -40 36 -76 67 -81 68 -5 2 -9 12 -9 23 0 16 -32 59 -44
59 -12 0 -76 69 -76 82 0 8 -13 25 -30 38 -17 13 -30 30 -30 40 0 9 -20 33
-45 54 -30 26 -45 47 -45 62 0 15 -6 24 -15 24 -13 0 -15 -589 -15 -5240z"/>
<path d="M9810 6346 c0 -13 -7 -26 -15 -30 -11 -4 -15 -20 -15 -55 0 -34 -4
-51 -15 -55 -9 -3 -15 -18 -15 -34 0 -16 -7 -35 -15 -42 -9 -7 -15 -29 -15
-55 0 -26 -6 -48 -15 -55 -8 -7 -15 -25 -15 -40 0 -15 -7 -33 -15 -40 -8 -7
-15 -25 -15 -40 0 -15 -7 -33 -15 -40 -9 -7 -15 -29 -15 -55 0 -26 -6 -48 -15
-55 -8 -7 -15 -25 -15 -40 0 -15 -7 -33 -15 -40 -8 -7 -15 -25 -15 -40 0 -15
-7 -33 -15 -40 -8 -7 -15 -28 -15 -46 0 -31 -3 -34 -29 -34 -16 0 -31 5 -33
10 -2 6 -13 12 -25 14 -13 3 -35 16 -50 30 -15 14 -35 26 -44 26 -9 0 -22 7
-29 15 -7 9 -29 15 -51 15 -22 0 -39 5 -39 10 0 6 -24 10 -54 10 -35 0 -58 5
-66 15 -10 12 -40 15 -150 15 -110 0 -140 -3 -150 -15 -9 -11 -32 -15 -81 -15
-39 0 -69 -4 -69 -10 0 -5 -17 -10 -39 -10 -22 0 -44 -6 -51 -15 -7 -8 -27
-15 -45 -15 -18 0 -38 -7 -45 -15 -7 -8 -23 -15 -36 -15 -16 0 -24 -6 -24 -17
-1 -21 -33 -63 -49 -63 -14 0 -14 -17 -1 -25 6 -3 13 1 16 9 4 11 19 16 44 16
21 0 43 7 50 15 7 8 28 15 47 15 19 0 41 7 49 15 11 10 28 14 54 10 26 -3 44
0 54 10 22 22 440 22 462 0 9 -9 25 -13 38 -9 14 3 29 -1 39 -10 8 -9 24 -16
35 -16 11 0 25 -7 32 -15 7 -8 20 -15 30 -15 10 0 23 -7 30 -15 7 -8 21 -15
31 -15 11 0 35 -14 54 -32 30 -26 35 -38 35 -75 0 -30 -5 -45 -15 -49 -9 -4
-15 -19 -15 -39 0 -18 -7 -38 -15 -45 -9 -8 -15 -30 -15 -57 0 -30 -5 -45 -15
-49 -9 -4 -15 -19 -15 -40 0 -22 -6 -37 -15 -40 -11 -4 -15 -21 -15 -55 0 -35
-4 -51 -15 -55 -9 -4 -15 -19 -15 -40 0 -22 -6 -37 -15 -40 -11 -4 -15 -21
-15 -55 0 -35 -4 -51 -15 -55 -9 -4 -15 -19 -15 -40 0 -22 -6 -37 -15 -40 -10
-4 -15 -21 -15 -54 0 -34 -4 -50 -16 -54 -27 -10 -13 -51 19 -54 21 -3 27 -9
27 -28 0 -15 6 -24 15 -24 8 0 15 8 15 19 0 10 7 24 15 31 9 7 15 29 15 55 0
26 6 48 15 55 8 7 15 25 15 40 0 15 7 33 15 40 9 7 15 29 15 55 0 26 6 48 15
55 8 7 15 25 15 40 0 15 7 33 15 40 8 7 15 25 15 40 0 15 7 33 15 40 9 7 15
29 15 55 0 26 6 48 15 55 8 7 15 25 15 40 0 15 7 33 15 40 9 8 15 30 15 57 0
30 5 45 15 49 8 4 15 16 15 28 0 11 11 29 24 38 21 15 26 16 36 3 7 -8 22 -15
33 -15 11 0 30 -11 43 -25 13 -14 32 -25 42 -25 11 0 25 -7 32 -15 7 -8 27
-15 45 -15 18 0 38 -7 45 -15 7 -9 29 -15 51 -15 22 0 39 -4 39 -10 0 -6 35
-10 84 -10 62 0 87 -4 96 -15 7 -8 27 -15 45 -15 18 0 38 7 45 15 10 11 36 15
111 15 59 0 99 4 99 10 0 6 -22 10 -48 10 -27 0 -57 6 -68 15 -10 8 -40 15
-65 15 -29 0 -51 6 -59 15 -9 11 -33 15 -92 15 -57 0 -84 4 -94 15 -9 9 -25
13 -38 9 -14 -3 -29 1 -39 10 -8 9 -31 16 -50 16 -19 0 -40 7 -47 15 -7 8 -20
15 -29 15 -9 0 -28 11 -43 25 -15 14 -36 25 -46 25 -11 0 -25 6 -32 14 -6 8
-21 16 -33 18 -19 3 -22 10 -25 51 -2 35 1 49 12 53 12 4 16 20 16 55 0 35 4
51 15 55 9 4 15 19 15 40 0 22 6 37 15 40 11 4 15 21 15 55 0 35 4 51 15 55
10 4 15 21 15 54 0 33 5 50 15 54 9 3 15 18 15 40 0 21 6 36 15 40 9 3 15 18
15 40 0 21 -6 36 -15 40 -11 4 -15 22 -15 70 0 47 4 65 15 70 11 4 15 20 15
56 0 38 4 50 15 50 9 0 15 9 15 25 0 16 -6 25 -15 25 -9 0 -15 -9 -15 -24z"/>
<path d="M8497 4614 c-17 -18 13 -24 112 -24 84 0 111 -3 121 -15 9 -11 32
-15 81 -15 39 0 69 -4 69 -10 0 -5 18 -10 40 -10 27 0 43 -5 46 -15 8 -19 68
-21 62 -2 -3 6 -17 13 -31 15 -15 2 -27 8 -27 13 0 5 -11 9 -24 9 -13 0 -29 7
-36 15 -8 9 -30 15 -60 15 -30 0 -52 6 -60 15 -10 12 -40 15 -150 15 -75 0
-140 -3 -143 -6z"/>
</g>
</svg>
